# xmcd CD database file generated by Grip 3.1.2
# 
# Track frame offsets:
#       150
#       17738
#       38470
#       51284
#       84320
#       110435
#       139351
#       175218
#       209307
#       242070
#       278912
#       296018
# 
# Disc length: 4349 seconds
# 
# Revision: 5
# Processed by: cddbd v1.5PL3 Copyright (c) Steve Scherf et al.
# Submitted via: Grip 3.1.2
# 
DISCID=a910fb0c
DTITLE=Oscar Peterson Trio - Paris Jazz Convert CD 1/2
DYEAR=2002
DGENRE=Jazz
TTITLE0=The Man I Love
TTITLE1=Schooldays
TTITLE2=Bugle Call Rag
TTITLE3=Daahoud
TTITLE4=Stockholm Sweetenin'
TTITLE5=Soft Winds
TTITLE6=After Hours
TTITLE7=On Green Dolphin Street
TTITLE8=Band Call
TTITLE9=I Remember Clifford
TTITLE10=Where Do I Go From Here
TTITLE11=Satin Doll
EXTD=YEAR: 2002 ID3G:   0
EXTT0=
EXTT1=
EXTT2=
EXTT3=
EXTT4=
EXTT5=
EXTT6=
EXTT7=
EXTT8=
EXTT9=
EXTT10=
EXTT11=
PLAYORDER=
